<svg width="529" height="529" viewBox="0 0 529 529" fill="none" xmlns="http://www.w3.org/2000/svg">
<rect x="69.9994" y="92" width="400" height="400" rx="100" fill="#060606"/>
<path d="M192.091 282.041L281.353 297.095M332.571 228.753L278.208 296.565L309.045 377.632" stroke="#EFD366" stroke-width="16"/>
<circle cx="335.51" cy="223.572" r="14.7809" transform="rotate(38.2548 335.51 223.572)" fill="#EFD366"/>
<ellipse cx="309.513" cy="379.695" rx="14.7805" ry="14.7805" transform="rotate(38.2548 309.513 379.695)" fill="#EFD366"/>
<circle cx="190.089" cy="280.537" r="14.7806" transform="rotate(38.2548 190.089 280.537)" fill="#EFD366"/>
<ellipse cx="279.243" cy="300.128" rx="14.7805" ry="14.7805" transform="rotate(38.2548 279.243 300.128)" fill="#EFD366"/>
<path d="M225.351 170.111L276.03 297.149M404.471 309.58L274.245 292.673L193.828 396.149" stroke="white" stroke-width="16"/>
<circle cx="413.466" cy="309.304" r="22.3329" transform="rotate(96.9333 413.466 309.304)" fill="white"/>
<ellipse cx="191.534" cy="398.374" rx="22.3323" ry="22.3323" transform="rotate(96.9333 191.534 398.374)" fill="white"/>
<circle cx="225.719" cy="166.346" r="22.3326" transform="rotate(96.9333 225.719 166.346)" fill="white"/>
<ellipse cx="270.458" cy="296.808" rx="22.3323" ry="22.3323" transform="rotate(96.9333 270.458 296.808)" fill="white"/>
</svg>
